<?xml version="1.0" encoding="utf-8"?>
<!-- Generator: Adobe Illustrator 23.0.2, SVG Export Plug-In . SVG Version: 6.00 Build 0)  -->
<svg version="1.1" id="Layer_1" xmlns="http://www.w3.org/2000/svg" xmlns:xlink="http://www.w3.org/1999/xlink" x="0px" y="0px"
	 viewBox="0 0 226.8 226.8" style="enable-background:new 0 0 226.8 226.8;" xml:space="preserve">
<style type="text/css">
	.st0{fill:#FFFFFF;}
</style>
<g>
	<g>
		<path class="st0" d="M211.9,81.4h-78.6c-3.5-12.2-10.4-23.3-20-31.9c-14.6-13.1-33.4-19.1-53-16.9C28.7,36.1,3.6,61.5,0.4,93
			c-1.8,17.2,3,34.2,13.2,47.9c9.9,13.1,24,22.2,40,25.6l16.8,16.8c1.4,1.4,3.3,2.2,5.2,2.2c0.9,0,1.9-0.2,2.8-0.6
			c2.8-1.1,4.5-3.8,4.5-6.8v-11.7c2.8-0.6,5.4-1.4,8-2.3v0.5c0,8.2,6.7,14.9,14.9,14.9h25l13.3,13.3c1.2,1.2,2.8,1.8,4.4,1.8
			c0.8,0,1.6-0.2,2.4-0.5c2.3-1,3.8-3.2,3.8-5.7v-8.9h57c8.2,0,14.9-6.7,14.9-14.9V96.3C226.8,88.1,220.1,81.4,211.9,81.4z
			 M78.7,160c-1.7,0.3-2.9,1.8-2.9,3.5v14.6c0,0.1,0,0.2-0.1,0.2c-0.1,0.1-0.2,0-0.3-0.1l-17.5-17.5c-0.5-0.5-1.1-0.8-1.8-1
			c-14.7-2.9-27.7-11.1-36.7-23.1C10.2,124.4,6,109.1,7.5,93.7C8.8,80.2,15,67.2,24.7,57.3c9.8-9.9,22.7-16.2,36.2-17.7
			c2.4-0.3,4.7-0.4,7-0.4c15,0,29.2,5.4,40.5,15.5c12.9,11.5,20.3,28.1,20.3,45.3C128.8,129.6,107.7,154.8,78.7,160z M219.7,164.5
			c0,4.3-3.5,7.8-7.8,7.8h-60.6c-2,0-3.6,1.6-3.6,3.6v10.4l-12.9-12.9c-0.7-0.7-1.6-1-2.5-1h-26.5c-4.3,0-7.8-3.5-7.8-7.8V161
			c22.7-11.2,37.9-34.5,37.9-60.9c0-3.9-0.3-7.8-1-11.6h77c4.3,0,7.8,3.5,7.8,7.8V164.5L219.7,164.5z"/>
	</g>
</g>
<g>
	<g>
		<path class="st0" d="M199.2,109c-1.4-1.4-3.6-1.4-5,0l-35.4,35.4L142.4,128c-1.4-1.4-3.6-1.4-5,0s-1.4,3.6,0,5l18.9,18.9
			c0.7,0.7,1.6,1,2.5,1s1.8-0.3,2.5-1l37.9-37.9C200.6,112.6,200.6,110.4,199.2,109z"/>
	</g>
</g>
<g>
	<g>
		<path class="st0" d="M67.9,126.9L67.9,126.9c-2,0-3.6,1.6-3.6,3.6l0,0l0,0c0,2,1.6,3.6,3.6,3.6l0,0c2,0,3.6-1.6,3.6-3.6l0,0l0,0
			C71.5,128.5,69.9,126.9,67.9,126.9z"/>
	</g>
</g>
<g>
	<g>
		<path class="st0" d="M83.8,73c-4.3-4.3-9.9-6.7-15.8-6.7c-12.4,0-22.5,10.1-22.5,22.5c0,2,1.6,3.6,3.6,3.6s3.6-1.6,3.6-3.6
			c0-8.5,6.9-15.4,15.4-15.4c4,0,7.8,1.6,10.8,4.6s4.6,6.8,4.6,10.8c0,6.7-4.5,12.8-11,14.7c-4.8,1.4-8,5.7-8,10.6v1.1
			c0,2,1.6,3.6,3.6,3.6s3.6-1.6,3.6-3.6v-1.1c0-1.8,1.2-3.3,2.9-3.8c9.4-2.8,16-11.7,16-21.5C90.4,82.9,88.1,77.3,83.8,73z"/>
	</g>
</g>
</svg>
