<svg width="88" height="88" viewBox="0 0 88 88" fill="white" xmlns="http://www.w3.org/2000/svg">
<path d="M86.0899 40.0547C87.822 38.3666 88.4335 35.889 87.6864 33.5859C86.9375 31.2829 84.9868 29.6388 82.5903 29.2899L61.2828 26.1939C60.3753 26.0617 59.5912 25.4926 59.1859 24.6696L49.6599 5.36215C48.5903 3.19299 46.4194 1.84497 44 1.84497C41.5824 1.84497 39.4115 3.19299 38.3419 5.36215L28.8141 24.6696C28.4088 25.4926 27.6229 26.0617 26.7154 26.1939L5.40793 29.2917C3.01322 29.6388 1.06256 31.2829 0.313657 33.5859C-0.43348 35.889 0.177974 38.3666 1.91013 40.0547L17.3269 55.082C17.9841 55.7234 18.2855 56.6467 18.1304 57.5489L14.4916 78.7701C14.0828 81.1542 15.0432 83.5172 17.0009 84.941C18.9568 86.3666 21.5031 86.5516 23.6476 85.4221L42.7031 75.4027C43.5154 74.9763 44.4846 74.9763 45.2969 75.4027L64.3542 85.4221C65.2846 85.9119 66.2925 86.1533 67.2952 86.1533C68.5974 86.1533 69.8943 85.7463 71.0009 84.941C72.9586 83.5172 73.919 81.1542 73.5101 78.7701L69.8696 57.5507C69.7146 56.6467 70.0159 55.7252 70.6731 55.0837L86.0899 40.0547ZM66.3982 58.1463L70.037 79.3657C70.2203 80.4335 69.8062 81.4538 68.9286 82.0917C68.0494 82.7278 66.9551 82.8053 65.9947 82.3049L46.9374 72.2837C46.0194 71.8027 45.0079 71.5595 44 71.5595C42.9921 71.5595 41.9824 71.8027 41.0626 72.2855L22.0088 82.3049C21.0449 82.8053 19.9507 82.7278 19.0731 82.0917C18.1956 81.4538 17.7833 80.4353 17.9648 79.3657L21.6035 58.1463C21.9542 56.0987 21.2758 54.0089 19.7885 52.5604L4.37005 37.5313C3.59295 36.7736 3.32864 35.7058 3.6652 34.6749C4 33.6423 4.84053 32.934 5.91366 32.7771L27.2194 29.6811C29.2758 29.3833 31.0537 28.0934 31.9718 26.2291L41.4996 6.92162C41.9789 5.94894 42.9145 5.3692 43.9982 5.3692C45.0837 5.3692 46.0176 5.94894 46.4987 6.92162L56.0264 26.2291C56.9445 28.0934 58.7207 29.3833 60.7771 29.6811L82.0846 32.7771C83.1577 32.934 83.9983 33.6423 84.3331 34.6749C84.6679 35.7058 84.4053 36.7736 83.6282 37.5313L68.2115 52.5586C66.7242 54.0089 66.0458 56.097 66.3982 58.1463Z" fill="#C4C4C4"/>
</svg>
