<?xml version="1.0" encoding="utf-8"?>
<!-- Generator: Adobe Illustrator 23.0.2, SVG Export Plug-In . SVG Version: 6.00 Build 0)  -->
<svg version="1.1" id="Capa_1" xmlns="http://www.w3.org/2000/svg" xmlns:xlink="http://www.w3.org/1999/xlink" x="0px" y="0px"
	 viewBox="0 0 226.8 226.8" style="enable-background:new 0 0 226.8 226.8;" xml:space="preserve">
<style type="text/css">
	.st0{fill:#FFFFFF;}
</style>
<path class="st0" d="M56.3,93.4L12.9,50.1c-1.7-1.7-4.7-0.5-4.7,1.9v37.6c0,1.5-1.2,2.7-2.7,2.7H3.1c-1.5,0-2.7-1.2-2.7-2.7V39.4
	c0-0.1,0-0.1,0-0.2l-0.3-4.7c0-0.1,0-0.1,0-0.2v-0.1c0-1.5,1.2-2.8,2.7-2.8h55.3c1.5,0,2.7,1.2,2.7,2.7v2.4c0,1.5-1.2,2.7-2.7,2.7
	H19.9c-2.4,0-3.7,2.9-1.9,4.7l43.9,43.9c1.1,1.1,1.1,2.8,0,3.9l-1.8,1.7C59.1,94.5,57.3,94.5,56.3,93.4z"/>
<path class="st0" d="M108.8,134.5l43.4,43.3c1.7,1.7,4.7,0.5,4.7-1.9v-37.6c0-1.5,1.2-2.7,2.7-2.7h2.4c1.5,0,2.7,1.2,2.7,2.7v50.2
	c0,0.1,0,0.1,0,0.2l0.3,4.7c0,0.1,0,0.1,0,0.2v0.1c0,1.5-1.2,2.8-2.7,2.8H107c-1.5,0-2.7-1.2-2.7-2.7v-2.4c0-1.5,1.2-2.7,2.7-2.7
	h38.2c2.4,0,3.7-2.9,1.9-4.7l-43.9-43.9c-1.1-1.1-1.1-2.8,0-3.9l1.8-1.7C106,133.4,107.8,133.4,108.8,134.5z"/>
<path class="st0" d="M62,140.2l-43.3,43.4c-1.7,1.7-0.5,4.7,1.9,4.7h37.6c1.5,0,2.7,1.2,2.7,2.7v2.4c0,1.5-1.2,2.7-2.7,2.7H8
	c-0.1,0-0.1,0-0.2,0l-4.7,0.3c-0.1,0-0.1,0-0.2,0H2.8c-1.5,0-2.8-1.2-2.8-2.7v-55.3c0-1.5,1.2-2.7,2.7-2.7h2.4
	c1.5,0,2.7,1.2,2.7,2.7v38.2c0,2.4,2.9,3.7,4.7,1.9l43.9-43.9c1.1-1.1,2.8-1.1,3.9,0l1.7,1.8C63.1,137.4,63.1,139.2,62,140.2z"/>
<path class="st0" d="M103.1,87.7l43.3-43.4c1.7-1.7,0.5-4.7-1.9-4.7h-37.6c-1.5,0-2.7-1.2-2.7-2.7v-2.4c0-1.5,1.2-2.7,2.7-2.7h50.2
	c0.1,0,0.1,0,0.2,0l4.7-0.3c0.1,0,0.1,0,0.2,0h0.1c1.5,0,2.8,1.2,2.8,2.7v55.3c0,1.5-1.2,2.7-2.7,2.7H160c-1.5,0-2.7-1.2-2.7-2.7
	V51.3c0-2.4-2.9-3.7-4.7-1.9l-43.9,43.9c-1.1,1.1-2.8,1.1-3.9,0l-1.7-1.8C102,90.5,102,88.7,103.1,87.7z"/>
</svg>
