<?xml version="1.0" encoding="utf-8"?>
<!-- Generator: Adobe Illustrator 23.0.2, SVG Export Plug-In . SVG Version: 6.00 Build 0)  -->
<svg version="1.1" id="Capa_1" xmlns="http://www.w3.org/2000/svg" xmlns:xlink="http://www.w3.org/1999/xlink" x="0px" y="0px"
	 viewBox="0 0 226.8 226.8" style="enable-background:new 0 0 226.8 226.8;" xml:space="preserve">
<style type="text/css">
	.st0{fill:#FFFFFF;}
</style>
<path class="st0" d="M204.3,128.8l-33.9-2.4L148,89.1l-11.2-18.7v-5.2c0-5.6-4.6-10.2-10.1-10.2c-1.2,0-2.5,0.2-3.7,0.7L90.8,68.1
	l2.4-8.2c1.9-6.9-1.2-14.1-7.5-17.5L60.5,28.9c-1.8-1-4.1-0.4-5.2,1.4l-37,59.3l-0.8-0.4c-1.9-1.1-4.3-0.4-5.3,1.5
	c0,0,0,0.1-0.1,0.1L0.4,112.7c-1,1.9-0.3,4.2,1.6,5.3l141.1,78.2c0.6,0.3,1.2,0.5,1.9,0.5h58.3c12.9,0,23.4-10.5,23.5-23.5V153
	C226.7,140.2,216.9,129.7,204.3,128.8z M60.1,37.6l22,11.8c3.1,1.6,4.6,5.1,3.7,8.5l-3.2,10.9L60,55.2l-7.8-4.7L60.1,37.6z
	 M36.9,74.9l2-3.1l12.8,9.6c6.6,4.9,9.9,13,8.7,21.1L60,113.7L25,93.6L36.9,74.9z M203.3,188.8H146L9.1,112.9L17,98l129.6,74.6
	c0.6,0.4,1.3,0.5,1.9,0.5h70.4C218.9,181.8,211.9,188.8,203.3,188.8z M218.9,165.3h-69.3l-26.8-15.4l9-9.2c1.3-1.3,1.4-3.4,0.4-4.9
	c-0.1-0.2-0.4-0.4-0.5-0.7c-1.6-1.5-3.9-1.4-5.4,0l-0.9,0.9l-9.5,9.7L93.6,133l-12.7-7.3l19.3-16.1c1.7-1.4,1.9-3.9,0.5-5.5
	s-3.9-1.9-5.5-0.5l-21.5,17.9l-6.1-3.5l0.6-15c1.5-10.8-3.1-21.6-11.8-28.1L43.1,65l5-7.9L82.7,78c0.4,0.3,1,0.4,1.5,0.5
	c0.1,0,0.2,0,0.3,0c0.1,0,0.1,0,0.2,0c0.5,0,1-0.1,1.4-0.3L125.7,63c0.7-0.3,1.6-0.2,2.2,0.3c0.7,0.4,1,1.2,1,1.9v4.3l39.7,64.5
	l35.1,2.5c8.5,0.6,15.2,7.8,15.2,16.3L218.9,165.3L218.9,165.3z"/>
<path class="st0" d="M40.3,167H20.7c-2.2,0-3.9,1.8-3.9,3.9c0,2.1,1.8,3.9,3.9,3.9h19.6c2.2,0,3.9-1.8,3.9-3.9
	C44.2,168.7,42.4,167,40.3,167z"/>
<path class="st0" d="M16.8,194.4c0,2.2,1.8,3.9,3.9,3.9h50.9c2.2,0,3.9-1.8,3.9-3.9c0-2.1-1.8-3.9-3.9-3.9H20.7
	C18.6,190.5,16.8,192.2,16.8,194.4z"/>
</svg>
